<?xml version="1.0" encoding="UTF-8"?>
<svg xmlns="http://www.w3.org/2000/svg" viewBox="0 0 1605 605">
  <g id="_图层_2_复制" data-name="图层 2_复制">
    <g>
      <g>
        <path d="M900.24,301.47v25.71h-52.8c0-8.89-1.17-17.51-3.36-25.71h56.16Z" style="fill: #fff;"/>
        <polygon points="721.22 426.01 721.22 499.24 647.99 499.24 721.22 426.01" style="fill: #fff;"/>
      </g>
      <g>
        <polyline points="647.99 426.01 647.99 389.4 647.99 327.18 647.99 301.47 647.99 175.08 721.22 175.08 721.22 231.42 721.22 301.47 721.22 327.18 721.22 353.66 721.22 389.4 721.22 422.94 721.22 426.01" style="fill: none; stroke: #fff; stroke-linecap: round; stroke-linejoin: round; stroke-width: 8px;"/>
        <polygon points="721.22 426.01 721.22 499.24 647.99 499.24 647.99 426.01 684.61 426.01 721.22 426.01" style="fill: none; stroke: #fff; stroke-linecap: round; stroke-linejoin: round; stroke-width: 8px;"/>
        <path d="M721.22,389.4c0,11.57-5.36,21.88-13.74,28.59-6.27,5.02-14.22,8.02-22.87,8.02-10.08,0-19.22-4.08-25.83-10.66-6.67-6.63-10.79-15.81-10.79-25.95,0-8.91,3.18-17.06,8.47-23.41,6.7-8.07,16.83-13.21,28.15-13.21,10.3,0,19.61,4.25,26.26,11.1,6.4,6.6,10.35,15.59,10.35,25.52Z" style="fill: none; stroke: #fff; stroke-linecap: round; stroke-linejoin: round; stroke-width: 8px;"/>
        <path d="M847.44,327.18c0-8.89-1.17-17.51-3.36-25.71-11.33-42.45-50.04-73.71-96.06-73.71-9.29,0-18.28,1.27-26.8,3.66-33.73,9.41-60.22,36.17-69.26,70.05-2.19,8.2-3.36,16.82-3.36,25.71,0,13.77,2.8,26.89,7.86,38.81,4.95,11.66,12.06,22.19,20.84,31.06,8.61,8.73,18.84,15.87,30.18,20.94,4.42,1.97,9.01,3.63,13.74,4.95,8.52,2.39,17.51,3.66,26.8,3.66,54.91,0,99.42-44.51,99.42-99.42Z" style="fill: none; stroke: #fff; stroke-linecap: round; stroke-linejoin: round; stroke-width: 8px;"/>
        <polyline points="900.24 175.08 900.24 301.47 900.24 327.18 900.24 499.24" style="fill: none; stroke: #fff; stroke-linecap: round; stroke-linejoin: round; stroke-width: 8px;"/>
        <polyline points="648.6 327.18 721.22 327.18 748.02 327.18 847.44 327.18 900.24 327.18" style="fill: none; stroke: #fff; stroke-linecap: round; stroke-linejoin: round; stroke-width: 8px;"/>
        <polyline points="900.24 301.47 844.08 301.47 721.22 301.47 651.96 301.47 647.99 301.47" style="fill: none; stroke: #fff; stroke-linecap: round; stroke-linejoin: round; stroke-width: 8px;"/>
        <line x1="647.99" y1="499.24" x2="721.22" y2="426.01" style="fill: none; stroke: #fff; stroke-linecap: round; stroke-linejoin: round; stroke-width: 8px;"/>
        <polyline points="647.99 426.01 658.78 415.35 677.3 397.05 710.87 363.88 721.22 353.66 748.02 327.18" style="fill: none; stroke: #fff; stroke-linecap: round; stroke-linejoin: round; stroke-width: 8px;"/>
      </g>
    </g>
    <g>
      <g>
        <path d="M1262.7,415.02v-.02c6.77,6.76,10.95,16.09,10.95,26.4,0,20.61-16.71,37.32-37.32,37.32-10.31,0-19.64-4.18-26.39-10.93l52.76-52.77Z" style="fill: #fff;"/>
        <path d="M1092.22,466.6v12.07l-.78,1.47c-36.24-19.4-64.24-52.17-77.41-91.71l78.19,78.17Z" style="fill: #fff;"/>
        <path d="M1092.22,414.36v22.67l-85.86-85.84h-.01c-.4-4.63-.6-9.3-.6-14.03,0-3.02,.08-6.01,.25-8.99l86.22,86.19Z" style="fill: #fff;"/>
        <path d="M1092.22,362.13v22.66l-82.67-82.65c1.32-6.03,2.98-11.93,4.97-17.69h.01l77.69,77.68Z" style="fill: #fff;"/>
        <path d="M1092.22,309.89v22.67l-68.89-68.88c2.51-4.95,5.28-9.75,8.28-14.38h.01l60.6,60.59Z" style="fill: #fff;"/>
        <path d="M1092.22,257.65v22.67l-48-47.99c3.46-4.08,7.12-7.99,10.96-11.71h.01s37.03,37.03,37.03,37.03Z" style="fill: #fff;"/>
        <path d="M1092.22,193.78v34.3l-21.04-21.03c6.63-4.95,13.66-9.39,21.03-13.28h0Z" style="fill: #fff;"/>
      </g>
      <g>
        <path d="M1259.11,471.12c-26,17.74-57.43,28.12-91.28,28.12-27.62,0-53.63-6.91-76.39-19.1-36.24-19.4-64.24-52.17-77.41-91.71-3.96-11.86-6.58-24.34-7.68-37.24-.4-4.63-.6-9.3-.6-14.03,0-3.02,.08-6.01,.25-8.99,.48-8.89,1.68-17.58,3.55-26.03,1.32-6.03,2.98-11.93,4.97-17.69,2.45-7.16,5.4-14.1,8.81-20.77,2.51-4.95,5.28-9.75,8.28-14.38h0c3.84-5.94,8.05-11.61,12.61-16.97,3.46-4.08,7.12-7.99,10.96-11.71,5.03-4.86,10.37-9.4,16-13.57,6.63-4.95,13.66-9.39,21.03-13.28,22.58-11.93,48.31-18.69,75.62-18.69" style="fill: none; stroke: #fff; stroke-linecap: round; stroke-linejoin: round; stroke-width: 8px;"/>
        <path d="M1262.71,415c6.76,6.76,10.94,16.09,10.94,26.4,0,20.61-16.71,37.32-37.32,37.32-10.31,0-19.64-4.18-26.39-10.93-6.76-6.75-10.93-16.09-10.93-26.39,0-20.61,16.7-37.32,37.32-37.32,10.3,0,19.62,4.18,26.38,10.92Z" style="fill: none; stroke: #fff; stroke-linecap: round; stroke-linejoin: round; stroke-width: 8px;"/>
        <line x1="1209.94" y1="467.79" x2="1262.7" y2="415.02" style="fill: none; stroke: #fff; stroke-linecap: round; stroke-linejoin: round; stroke-width: 8px;"/>
        <polyline points="1092.22 193.78 1092.22 228.08 1092.22 257.65 1092.22 280.32 1092.22 309.89 1092.22 332.56 1092.22 362.13 1092.22 384.79 1092.22 414.36 1092.22 437.03 1092.22 466.6 1092.22 478.67" style="fill: none; stroke: #fff; stroke-linecap: round; stroke-linejoin: round; stroke-width: 8px;"/>
        <line x1="1092.22" y1="257.65" x2="1055.19" y2="220.63" style="fill: none; stroke: #fff; stroke-linecap: round; stroke-linejoin: round; stroke-width: 8px;"/>
        <line x1="1092.22" y1="228.08" x2="1071.18" y2="207.05" style="fill: none; stroke: #fff; stroke-linecap: round; stroke-linejoin: round; stroke-width: 8px;"/>
        <line x1="1092.22" y1="309.89" x2="1031.62" y2="249.3" style="fill: none; stroke: #fff; stroke-linecap: round; stroke-linejoin: round; stroke-width: 8px;"/>
        <line x1="1092.22" y1="280.32" x2="1044.22" y2="232.33" style="fill: none; stroke: #fff; stroke-linecap: round; stroke-linejoin: round; stroke-width: 8px;"/>
        <line x1="1092.22" y1="362.13" x2="1014.53" y2="284.45" style="fill: none; stroke: #fff; stroke-linecap: round; stroke-linejoin: round; stroke-width: 8px;"/>
        <line x1="1092.22" y1="332.56" x2="1023.33" y2="263.68" style="fill: none; stroke: #fff; stroke-linecap: round; stroke-linejoin: round; stroke-width: 8px;"/>
        <line x1="1092.22" y1="414.36" x2="1006" y2="328.17" style="fill: none; stroke: #fff; stroke-linecap: round; stroke-linejoin: round; stroke-width: 8px;"/>
        <line x1="1092.22" y1="384.79" x2="1009.55" y2="302.14" style="fill: none; stroke: #fff; stroke-linecap: round; stroke-linejoin: round; stroke-width: 8px;"/>
        <line x1="1092.22" y1="466.6" x2="1014.03" y2="388.43" style="fill: none; stroke: #fff; stroke-linecap: round; stroke-linejoin: round; stroke-width: 8px;"/>
        <line x1="1092.22" y1="437.03" x2="1006.36" y2="351.19" style="fill: none; stroke: #fff; stroke-linecap: round; stroke-linejoin: round; stroke-width: 8px;"/>
      </g>
    </g>
    <g>
      <g>
        <path d="M1423.78,381.82c19.61,0,35.51,15.9,35.51,35.52s-15.9,35.51-35.51,35.51v-71.03Z" style="fill: #fff;"/>
        <polygon points="1446.74 335.89 1446.74 381.82 1423.78 381.82 1400.81 381.82 1446.74 335.89" style="fill: #fff;"/>
      </g>
      <g>
        <polyline points="1446.74 381.82 1459.29 381.82 1459.29 417.34 1459.29 499.66 1423.78 499.66 1388.26 499.66 1388.26 417.34 1388.26 381.82 1400.81 381.82" style="fill: none; stroke: #fff; stroke-linecap: round; stroke-linejoin: round; stroke-width: 8px;"/>
        <polygon points="1446.74 381.82 1423.78 381.82 1400.81 381.82 1400.81 335.89 1423.78 335.89 1446.74 335.89 1446.74 381.82" style="fill: none; stroke: #fff; stroke-linecap: round; stroke-linejoin: round; stroke-width: 8px;"/>
        <line x1="1446.74" y1="335.89" x2="1400.81" y2="381.82" style="fill: none; stroke: #fff; stroke-linecap: round; stroke-linejoin: round; stroke-width: 8px;"/>
        <line x1="1423.78" y1="335.89" x2="1423.78" y2="174.67" style="fill: none; stroke: #fff; stroke-linecap: round; stroke-linejoin: round; stroke-width: 8px;"/>
        <polyline points="1423.78 499.66 1423.78 452.85 1423.78 381.82" style="fill: none; stroke: #fff; stroke-linecap: round; stroke-linejoin: round; stroke-width: 8px;"/>
        <path d="M1459.29,417.34c0,19.61-15.9,35.51-35.51,35.51s-35.52-15.9-35.52-35.51,15.9-35.52,35.52-35.52,35.51,15.9,35.51,35.52Z" style="fill: none; stroke: #fff; stroke-linecap: round; stroke-linejoin: round; stroke-width: 8px;"/>
      </g>
    </g>
  </g>
  <g id="_彩色logo" data-name="彩色logo">
    <circle cx="295.71" cy="315.5" r="229.71" style="fill: #fff;"/>
    <g>
      <path d="M366.51,512.04l-46.32-77.02s-1.38-1.8-1.38-4.7v-142.69h-17.56v147.39c1.38,1.52,30.56,51.02,30.56,51.02h-72.04s29.04-49.5,30.56-51.02v-147.39h-17.56v142.83c0,2.9-1.38,4.7-1.38,4.7l-46.32,77.02,141.45-.14h0Z" style="fill: #aa8420;"/>
      <g>
        <path d="M352.13,187.52s8.71-35.95-22.26-59.59c0,0-12.44-11.2-35.95-11.2-21.16,0-33.46,11.2-33.46,11.2-28.76,20.05-21.29,59.59-21.29,59.59h112.97Z" style="fill: #aa8420;"/>
        <path d="M242.62,197.62h106.19c.83-2.07,1.52-4.01,2.21-6.22h-110.61c.69,2.07,1.38,4.15,2.21,6.22Z" style="fill: #aa8420;"/>
        <path d="M347.15,201.21h-102.73c.97,2.21,2.35,4.15,3.59,6.22h95.82c1.11-1.94,2.35-4.01,3.32-6.22Z" style="fill: #aa8420;"/>
        <path d="M254.79,216.28h81.85c1.52-1.52,2.9-3.18,4.29-4.98h-90.43c1.38,1.66,2.77,3.32,4.29,4.98Z" style="fill: #aa8420;"/>
        <path d="M263.64,223.61h64.16c1.66-1.11,3.32-2.35,4.84-3.73h-73.84c1.52,1.24,3.18,2.63,4.84,3.73Z" style="fill: #aa8420;"/>
        <path d="M272.49,228.59c7.05,3.18,14.93,4.98,23.23,4.98s16.04-1.8,23.23-4.98h-46.46Z" style="fill: #aa8420;"/>
      </g>
      <path d="M405.91,236.19h-86.83s-8.16,0-14.52,4.42c-4.98,3.46-8.43,11.34-8.71,11.61h0c-.14-.41-3.73-8.3-8.71-11.61-6.5-4.42-14.52-4.42-14.52-4.42h-86.97l-17.28,27.93h79.5s2.35,0,3.87,.28c2.35,.41,6.5,1.66,10.78,4.7,5.81,4.29,7.6,6.5,8.99,7.88,.83,.83,2.49,3.32,2.49,3.32h43.42s1.94-2.49,2.49-3.32c1.38-1.52,3.04-3.73,8.99-7.88,4.29-3.04,8.43-4.29,10.78-4.7,1.38-.28,3.87-.28,3.87-.28h79.64l-17.28-27.93Z" style="fill: #003477;"/>
      <g>
        <g>
          <path d="M177.08,272.7v132.05c0,1.38,.14,2.77,.28,3.87,1.38,13.97,5.81,24.34,13.97,37.89,12.86,21.29,35.81,36.09,35.81,36.09l10.92-17.42s-14.79-7.88-26.69-25.99c-2.35-3.73-4.84-6.91-6.36-10.37-1.52-3.18-2.63-5.81-3.59-8.43-.69-2.07-1.24-3.87-1.66-5.39-.69-2.35-.83-4.29-.97-6.64,0-.83-.14-4.01-.14-4.01v-131.63h-21.57Z" style="fill: #003477;"/>
          <path d="M210.13,272.7v131.63s0,.55,.14,1.11c0,.69,.14,1.66,.28,2.35,0,.55,.14,.97,.28,1.38,.41,2.07,.83,3.87,1.8,6.64,1.52,4.42,4.01,9.82,7.88,16.04,9.82,15.76,23.78,22.95,23.78,22.95l10.92-17.01s-3.59-2.07-8.02-6.22c-2.9-2.77-6.36-6.5-9.4-10.92-2.9-4.42-4.7-8.99-5.67-12.44-.83-2.77-.97-5.12-.97-6.64v-128.87h-21.02Z" style="fill: #003477;"/>
        </g>
        <g>
          <path d="M414.63,272.7v132.05c0,1.38-.14,2.77-.28,3.87-1.38,13.97-5.81,24.34-13.97,37.89-12.86,21.29-35.81,36.09-35.81,36.09l-10.92-17.42s14.79-7.88,26.69-25.99c2.35-3.73,4.84-6.91,6.36-10.37,1.52-3.18,2.63-5.81,3.59-8.43,.69-2.07,1.24-3.87,1.66-5.39,.69-2.35,.83-4.29,.97-6.64,0-.83,.14-4.01,.14-4.01v-131.63h21.57Z" style="fill: #003477;"/>
          <path d="M381.44,272.7v131.63s0,.55-.14,1.11c0,.69-.14,1.66-.28,2.35,0,.55-.14,.97-.28,1.38-.41,2.07-.83,3.87-1.8,6.64-1.52,4.42-4.01,9.82-7.88,16.04-9.82,15.76-23.78,22.95-23.78,22.95l-10.92-17.01s3.59-2.07,8.02-6.22c2.9-2.77,6.36-6.5,9.4-10.92,2.9-4.42,4.7-8.99,5.67-12.44,.83-2.77,.97-5.12,.97-6.64v-128.87h21.02Z" style="fill: #003477;"/>
        </g>
      </g>
    </g>
  </g>
</svg>